<svg width="121" height="134" viewBox="0 0 121 134" fill="none" xmlns="http://www.w3.org/2000/svg">
<path fill-rule="evenodd" clip-rule="evenodd" d="M10 123.576H41L68 108.576C81.5 101.076 85.1695 97.21 80 92.0762C81.2828 88.0865 81.3726 86.054 78 83.5762C78.8096 79.3624 78.1488 77.6954 74 76.5762C72.0793 70.0524 69.9877 69.1798 65 71.0762L59 74.5762L52.5 67.5762L58 63.5762L56.5 61.5762C60.9188 59.3014 65.6603 58.3953 79 57.5762C79.7964 57.5595 80.5326 57.5121 81.2285 57.4674C83.6981 57.3085 85.6595 57.1824 88 58.5762C92.2084 61.0824 96.5 60.0762 92.5 53.5762L85.5 41.0762C91.6239 36.1571 84.5 23.0762 77 25.5762L69.5 11.5762C67 8.0762 65.5 11.0762 64.5 14.0762C61.1633 23.7208 57.8136 29.2367 45 39.5762L43 37.0762L26.5 47.5762C22.7943 50.1312 25 53.5762 25 53.5762C26.833 56.0289 27.4053 57.7312 25 58.5762C23.1905 59.1824 23.743 60.2127 24.566 61.7472C24.7063 62.0087 24.8544 62.2849 25 62.5762L27.5 67.5762C28.6171 69.3415 29.3208 70.4043 31 69.0762C32.3882 67.8455 33.0567 67.879 34 69.5762C37.5777 74.4558 39.7161 73.7402 44.5 71.5762L49 77.0762C40.8004 85.255 39.5454 89.2123 41 95.5762L14 111.076C13.9076 111.129 13.8173 111.18 13.7291 111.231C10.474 113.084 10 113.353 10 123.576ZM41.0524 46.9194C40.7481 46.4548 40.1234 46.3273 39.6613 46.6353L32.2853 51.5527C31.8445 51.8466 31.7094 52.4333 31.9773 52.8904L39.4891 65.7046C39.7704 66.1845 40.3893 66.3426 40.8663 66.0564L49.1079 61.1115C49.5948 60.8193 49.741 60.1809 49.4299 59.706L41.0524 46.9194Z" fill="#7FCB67"/>
<path d="M106.094 20.5L94.5937 27M97.0937 10L89.0937 19M110.594 33.5L98.0937 35.5" stroke="#7FCB67" stroke-width="5" stroke-linecap="round"/>
</svg>
