<svg width="433" height="249" viewBox="0 0 433 249" fill="none" xmlns="http://www.w3.org/2000/svg">
<path d="M262 13.5L249.75 21M252.25 3L244.25 13M265.75 27.5L253.25 29.5" stroke="#7FCB67" stroke-width="5" stroke-linecap="round"/>
<path fill-rule="evenodd" clip-rule="evenodd" d="M166.75 117.576H197.75L224.75 102.576C238.25 95.0762 241.92 91.21 236.75 86.0762C238.033 82.0865 238.123 80.054 234.75 77.5762C235.56 73.3624 234.899 71.6954 230.75 70.5762C228.829 64.0524 226.738 63.1798 221.75 65.0762L215.75 68.5762L209.25 61.5762L214.75 57.5762L213.25 55.5762C217.669 53.3014 222.41 52.3953 235.75 51.5762C236.546 51.5595 237.283 51.5121 237.979 51.4674C240.448 51.3085 242.409 51.1824 244.75 52.5762C248.958 55.0824 253.25 54.0762 249.25 47.5762L242.25 35.0762C248.374 30.1571 241.25 17.0762 233.75 19.5762L226.25 5.5762C223.75 2.0762 222.25 5.0762 221.25 8.0762C217.913 17.7208 214.564 23.2367 201.75 33.5762L199.75 31.0762L183.25 41.5762C179.544 44.1312 181.75 47.5762 181.75 47.5762C183.583 50.0289 184.155 51.7312 181.75 52.5762C179.941 53.1824 180.493 54.2127 181.316 55.7472C181.456 56.0087 181.604 56.2849 181.75 56.5762L184.25 61.5762C185.367 63.3415 186.071 64.4043 187.75 63.0762C189.138 61.8455 189.807 61.879 190.75 63.5762C194.328 68.4558 196.466 67.7402 201.25 65.5762L205.75 71.0762C197.55 79.255 196.295 83.2123 197.75 89.5762L170.75 105.076C170.658 105.129 170.567 105.18 170.479 105.231C167.224 107.084 166.75 107.353 166.75 117.576ZM197.802 40.9194C197.498 40.4548 196.873 40.3273 196.411 40.6353L189.035 45.5527C188.594 45.8466 188.459 46.4333 188.727 46.8904L196.239 59.7046C196.52 60.1845 197.139 60.3426 197.616 60.0564L205.858 55.1115C206.345 54.8193 206.491 54.1809 206.18 53.706L197.802 40.9194Z" fill="#7FCB67"/>
<path d="M0 147.576V169.576H49.5C82 172.576 81 222.076 49.5 224.076H28V198.076H0V246.576H49.5C111.5 247.576 127.5 154.076 49.5 147.576L0 147.576Z" fill="#7FCB67"/>
<path d="M136 146.576H165V246.576H136V146.576Z" fill="#7FCB67"/>
<path d="M204 146.576V161.576L274 246.576H299V234.576L228 146.576H204Z" fill="#7FCB67"/>
<path d="M299 146.576H270V165.576L299 199.076V146.576Z" fill="#7FCB67"/>
<path d="M204 194.576V246.576H232V229.576L204 194.576Z" fill="#7FCB67"/>
<path fill-rule="evenodd" clip-rule="evenodd" d="M429.5 194.528L430 235.576C430 235.576 429.5 208.344 429.5 194.528Z" fill="#7FCB67"/>
<path d="M333 196.567C333 225.561 357.572 248.576 388.5 248.576C404.69 248.576 416 245.576 430 235.576C430 235.576 429.5 208.344 429.5 194.528L404.5 195.037C404.5 195.955 404.503 196.867 404.506 197.772L404.507 197.8C404.539 206.857 404.507 222.076 404.507 222.076C404.507 222.076 400 225.576 389.5 225.576C373.484 225.576 360.5 212.894 360.5 196.567C360.5 180.239 373.484 168.576 389.5 168.576C402 170.076 408.466 173.218 414.5 180.076L432.5 163.576C422.228 152.046 405.778 144.576 388.5 144.576C357.572 144.576 333 167.572 333 196.567Z" fill="#7FCB67"/>
</svg>
